# xmcd CD database file
#
# Track frame offsets:
#	150
#	15380
#	26406
#	44771
#	51166
#	64486
#	92157
#	107720
#	123528
#	138801
#	159415
#
# Disc length: 2248 seconds
#
# Revision: 0
# Processed by: cddbd v1.5.2PL0 Copyright (c) Steve Scherf et al.
# Submitted via: CDex 1.51
#
DISCID=9208c60b
DTITLE=Niall Connolly - As tomorrow creeps from the East
DYEAR=2003
DGENRE=New Age
TTITLE0=What are you Thinking
TTITLE1=Blue chases White
TTITLE2=Oil on Water
TTITLE3=Let the tigers come with claws
TTITLE4=I will come and see you Soon
TTITLE5=First names Only
TTITLE6=A shell in the City
TTITLE7=The long Weekend
TTITLE8=When the sun is on your Back
TTITLE9=Last page of Winter
TTITLE10=Grape or Grain
EXTD=YEAR: 2003
EXTT0=
EXTT1=
EXTT2=
EXTT3=
EXTT4=
EXTT5=
EXTT6=
EXTT7=
EXTT8=
EXTT9=
EXTT10=
PLAYORDER=
